<?xml version="1.0" encoding="UTF-8" standalone="no"?>
<!-- Created with Inkscape (http://www.inkscape.org/) -->

<svg
   xmlns:dc="http://purl.org/dc/elements/1.1/"
   xmlns:cc="http://creativecommons.org/ns#"
   xmlns:rdf="http://www.w3.org/1999/02/22-rdf-syntax-ns#"
   xmlns:svg="http://www.w3.org/2000/svg"
   xmlns="http://www.w3.org/2000/svg"
   xmlns:sodipodi="http://sodipodi.sourceforge.net/DTD/sodipodi-0.dtd"
   xmlns:inkscape="http://www.inkscape.org/namespaces/inkscape"
   width="210mm"
   height="297mm"
   viewBox="0 0 210 297"
   version="1.1"
   id="svg8"
   inkscape:version="0.92.2 5c3e80d, 2017-08-06"
   sodipodi:docname="logo.svg">
  <defs
     id="defs2">
    <inkscape:path-effect
       effect="spiro"
       id="path-effect1276"
       is_visible="true" />
    <inkscape:path-effect
       effect="simplify"
       id="path-effect1274"
       is_visible="true"
       steps="1"
       threshold="0.0131818"
       smooth_angles="360"
       helper_size="0"
       simplify_individual_paths="false"
       simplify_just_coalesce="false"
       simplifyindividualpaths="false"
       simplifyJustCoalesce="false" />
    <inkscape:path-effect
       effect="spiro"
       id="path-effect1240"
       is_visible="true" />
    <inkscape:path-effect
       effect="simplify"
       id="path-effect1238"
       is_visible="true"
       steps="1"
       threshold="0.0131818"
       smooth_angles="360"
       helper_size="0"
       simplify_individual_paths="false"
       simplify_just_coalesce="false"
       simplifyindividualpaths="false"
       simplifyJustCoalesce="false" />
    <inkscape:path-effect
       effect="spiro"
       id="path-effect1234"
       is_visible="true" />
    <inkscape:path-effect
       effect="simplify"
       id="path-effect1232"
       is_visible="true"
       steps="1"
       threshold="0.0131818"
       smooth_angles="360"
       helper_size="0"
       simplify_individual_paths="false"
       simplify_just_coalesce="false"
       simplifyindividualpaths="false"
       simplifyJustCoalesce="false" />
    <inkscape:path-effect
       effect="spiro"
       id="path-effect1065"
       is_visible="true" />
    <inkscape:path-effect
       effect="simplify"
       id="path-effect1063"
       is_visible="true"
       steps="1"
       threshold="0.0131818"
       smooth_angles="360"
       helper_size="0"
       simplify_individual_paths="false"
       simplify_just_coalesce="false"
       simplifyindividualpaths="false"
       simplifyJustCoalesce="false" />
    <inkscape:path-effect
       effect="spiro"
       id="path-effect926"
       is_visible="true" />
    <inkscape:path-effect
       effect="simplify"
       id="path-effect924"
       is_visible="true"
       steps="1"
       threshold="0.0131818"
       smooth_angles="360"
       helper_size="0"
       simplify_individual_paths="false"
       simplify_just_coalesce="false"
       simplifyindividualpaths="false"
       simplifyJustCoalesce="false" />
    <inkscape:path-effect
       effect="spiro"
       id="path-effect920"
       is_visible="true" />
    <inkscape:path-effect
       effect="simplify"
       id="path-effect918"
       is_visible="true"
       steps="1"
       threshold="0.0131818"
       smooth_angles="360"
       helper_size="0"
       simplify_individual_paths="false"
       simplify_just_coalesce="false"
       simplifyindividualpaths="false"
       simplifyJustCoalesce="false" />
    <inkscape:path-effect
       effect="spiro"
       id="path-effect908"
       is_visible="true" />
    <inkscape:path-effect
       effect="simplify"
       id="path-effect906"
       is_visible="true"
       steps="1"
       threshold="0.0131818"
       smooth_angles="360"
       helper_size="0"
       simplify_individual_paths="false"
       simplify_just_coalesce="false"
       simplifyindividualpaths="false"
       simplifyJustCoalesce="false" />
    <inkscape:path-effect
       effect="spiro"
       id="path-effect902"
       is_visible="true" />
    <inkscape:path-effect
       effect="simplify"
       id="path-effect900"
       is_visible="true"
       steps="1"
       threshold="0.0131818"
       smooth_angles="360"
       helper_size="0"
       simplify_individual_paths="false"
       simplify_just_coalesce="false"
       simplifyindividualpaths="false"
       simplifyJustCoalesce="false" />
    <inkscape:path-effect
       effect="spiro"
       id="path-effect896"
       is_visible="true" />
    <inkscape:path-effect
       effect="simplify"
       id="path-effect894"
       is_visible="true"
       steps="1"
       threshold="0.0131818"
       smooth_angles="360"
       helper_size="0"
       simplify_individual_paths="false"
       simplify_just_coalesce="false"
       simplifyindividualpaths="false"
       simplifyJustCoalesce="false" />
    <inkscape:path-effect
       effect="spiro"
       id="path-effect890"
       is_visible="true" />
    <inkscape:path-effect
       effect="simplify"
       id="path-effect888"
       is_visible="true"
       steps="1"
       threshold="0.0131818"
       smooth_angles="360"
       helper_size="0"
       simplify_individual_paths="false"
       simplify_just_coalesce="false"
       simplifyindividualpaths="false"
       simplifyJustCoalesce="false" />
    <inkscape:path-effect
       effect="spiro"
       id="path-effect884"
       is_visible="true" />
    <inkscape:path-effect
       effect="simplify"
       id="path-effect882"
       is_visible="true"
       steps="1"
       threshold="0.0131818"
       smooth_angles="360"
       helper_size="0"
       simplify_individual_paths="false"
       simplify_just_coalesce="false"
       simplifyindividualpaths="false"
       simplifyJustCoalesce="false" />
    <inkscape:path-effect
       effect="spiro"
       id="path-effect878"
       is_visible="true" />
    <inkscape:path-effect
       effect="simplify"
       id="path-effect876"
       is_visible="true"
       steps="1"
       threshold="0.0131818"
       smooth_angles="360"
       helper_size="0"
       simplify_individual_paths="false"
       simplify_just_coalesce="false"
       simplifyindividualpaths="false"
       simplifyJustCoalesce="false" />
    <inkscape:path-effect
       effect="spiro"
       id="path-effect872"
       is_visible="true" />
    <inkscape:path-effect
       effect="simplify"
       id="path-effect870"
       is_visible="true"
       steps="1"
       threshold="0.0131818"
       smooth_angles="360"
       helper_size="0"
       simplify_individual_paths="false"
       simplify_just_coalesce="false"
       simplifyindividualpaths="false"
       simplifyJustCoalesce="false" />
    <inkscape:path-effect
       effect="spiro"
       id="path-effect864"
       is_visible="true" />
    <inkscape:path-effect
       effect="simplify"
       id="path-effect862"
       is_visible="true"
       steps="1"
       threshold="0.0131818"
       smooth_angles="360"
       helper_size="0"
       simplify_individual_paths="false"
       simplify_just_coalesce="false"
       simplifyindividualpaths="false"
       simplifyJustCoalesce="false" />
    <inkscape:path-effect
       effect="spiro"
       id="path-effect858"
       is_visible="true" />
    <inkscape:path-effect
       effect="simplify"
       id="path-effect856"
       is_visible="true"
       steps="1"
       threshold="0.0131818"
       smooth_angles="360"
       helper_size="0"
       simplify_individual_paths="false"
       simplify_just_coalesce="false"
       simplifyindividualpaths="false"
       simplifyJustCoalesce="false" />
    <inkscape:path-effect
       effect="spiro"
       id="path-effect852"
       is_visible="true" />
    <inkscape:path-effect
       effect="simplify"
       id="path-effect850"
       is_visible="true"
       steps="1"
       threshold="0.0131818"
       smooth_angles="360"
       helper_size="0"
       simplify_individual_paths="false"
       simplify_just_coalesce="false"
       simplifyindividualpaths="false"
       simplifyJustCoalesce="false" />
    <inkscape:path-effect
       effect="spiro"
       id="path-effect846"
       is_visible="true" />
    <inkscape:path-effect
       effect="simplify"
       id="path-effect844"
       is_visible="true"
       steps="1"
       threshold="0.0131818"
       smooth_angles="360"
       helper_size="0"
       simplify_individual_paths="false"
       simplify_just_coalesce="false"
       simplifyindividualpaths="false"
       simplifyJustCoalesce="false" />
    <inkscape:path-effect
       effect="spiro"
       id="path-effect828"
       is_visible="true" />
    <inkscape:path-effect
       effect="spiro"
       id="path-effect824"
       is_visible="true" />
  </defs>
  <sodipodi:namedview
     id="base"
     pagecolor="#ffffff"
     bordercolor="#666666"
     borderopacity="1.0"
     inkscape:pageopacity="0.0"
     inkscape:pageshadow="2"
     inkscape:zoom="0.5"
     inkscape:cx="563.50612"
     inkscape:cy="489.13932"
     inkscape:document-units="mm"
     inkscape:current-layer="layer5"
     showgrid="true"
     inkscape:window-width="1440"
     inkscape:window-height="855"
     inkscape:window-x="0"
     inkscape:window-y="1"
     inkscape:window-maximized="1">
    <inkscape:grid
       type="xygrid"
       id="grid1000" />
  </sodipodi:namedview>
  <metadata
     id="metadata5">
    <rdf:RDF>
      <cc:Work
         rdf:about="">
        <dc:format>image/svg+xml</dc:format>
        <dc:type
           rdf:resource="http://purl.org/dc/dcmitype/StillImage" />
        <dc:title></dc:title>
      </cc:Work>
    </rdf:RDF>
  </metadata>
  <g
     inkscape:label="Layer 1"
     inkscape:groupmode="layer"
     id="layer1"
     style="display:inline"
     sodipodi:insensitive="true">
    <path
       style="fill:none;stroke:#000000;stroke-width:4.46500015;stroke-linecap:butt;stroke-linejoin:miter;stroke-miterlimit:4;stroke-dasharray:none;stroke-opacity:1"
       d="M 85.422619,123.13095 C 48.221596,91.564109 61.765382,85.778756 66.523808,76.261905 100.35284,8.6038441 181.78614,233.72678 92.717559,225.3924 37.392089,209.29461 108.42808,164.40766 85.422619,123.13095 Z"
       id="path817"
       inkscape:connector-curvature="0"
       sodipodi:nodetypes="cscc" />
  </g>
  <g
     inkscape:groupmode="layer"
     id="layer2"
     inkscape:label="face"
     style="display:inline"
     sodipodi:insensitive="true">
    <path
       style="fill:#000000;fill-opacity:1;stroke:#000000;stroke-width:0.26458332px;stroke-linecap:butt;stroke-linejoin:miter;stroke-opacity:1"
       d="M 66.523808,105.74405 99.785714,73.238094"
       id="path826"
       inkscape:connector-curvature="0"
       inkscape:path-effect="#path-effect828"
       inkscape:original-d="M 66.523808,105.74405 C 71.926346,90.071087 89.565336,82.436435 99.785714,73.238094" />
    <path
       style="fill:#000000;fill-opacity:1;stroke:#000000;stroke-width:0.26458332px;stroke-linecap:butt;stroke-linejoin:miter;stroke-opacity:1"
       d="m 99.785714,73.238092 c 1.006726,4.519882 0.714496,9.321431 -0.832941,13.685863 -0.685526,1.933473 -1.613702,3.784142 -2.793021,5.462674 -0.445256,0.633736 -0.956898,1.267219 -1.668895,1.572071 -0.186449,0.07983 -0.384407,0.135384 -0.586633,0.150904 -0.202226,0.01552 -0.408946,-0.0098 -0.596873,-0.08611 -0.298668,-0.121242 -0.536108,-0.366156 -0.69306,-0.647702 -0.156952,-0.281546 -0.239361,-0.598834 -0.291105,-0.916993 -0.103487,-0.636317 -0.09544,-1.307978 -0.378415,-1.887231 -0.179123,-0.366665 -0.469596,-0.675539 -0.816213,-0.890911 -0.346617,-0.215373 -0.747807,-0.338378 -1.15459,-0.370873 -0.802234,-0.06408 -1.613547,0.227006 -2.240826,0.731197 -0.627279,0.50419 -1.076755,1.209482 -1.342175,1.969244 -0.302037,0.86458 -0.373828,1.79522 -0.336261,2.710269 0.03757,0.915048 0.181437,1.82185 0.299926,2.729973 0.118488,0.908122 0.211897,1.825168 0.147881,2.738746 -0.06401,0.91358 -0.292543,1.82975 -0.777514,2.60662 -0.493986,0.79131 -1.23539,1.40731 -2.051915,1.8584 -0.816526,0.45109 -1.709558,0.7464 -2.60889,0.99419 -4.726786,1.30234 -9.796879,1.33569 -14.540386,0.0956"
       id="path854"
       inkscape:connector-curvature="0"
       inkscape:path-effect="#path-effect856;#path-effect858"
       inkscape:original-d="m 99.785714,73.238092 c -1.330918,9.068657 -0.831549,8.403759 -0.831549,14.211908 0,0.0061 -1.058333,1.611514 -1.058333,3.175 0,0.09144 -1.5875,1.184881 -1.5875,1.058333 0,-0.24121 -0.219824,1.5875 -0.529167,1.5875 -1.456233,-2.379879 -1.175932,2.993206 -1.5875,0 0.02197,0.498419 -1.045143,0.559605 -1.058333,1.058334 0,0.249449 0.778619,0.529166 0.529167,0.529166 -1.086139,0 -2.170265,-8.702112 -3.175,-5.55625 -11.328875,0.142946 1.47342,1.599785 -4.7625,13.493747 -1.088062,1.08807 -3.300907,0.65508 -4.233333,1.5875 -0.249452,0.24945 0.315534,0.90057 0,1.05834 -4.515689,2.25784 -10.469907,2.85121 -14.967858,0.30238"
       sodipodi:nodetypes="cssscccsccscc" />
    <path
       style="display:inline;fill:#000000;fill-opacity:1;stroke:#000000;stroke-width:0.26458332px;stroke-linecap:butt;stroke-linejoin:miter;stroke-opacity:1"
       d="m 93.91851,115.61753 c 0.649834,-1.00198 1.360524,-1.96448 2.12685,-2.88044 0.661764,-0.79098 1.365606,-1.5481 1.981155,-2.37556 0.637218,-0.85659 1.175283,-1.78249 1.789295,-2.65586 0.58091,-0.82629 1.23031,-1.60636 1.74858,-2.47331 0.68828,-1.15134 1.1322,-2.43408 1.80402,-3.5951 0.3435,-0.59362 0.75097,-1.1658 0.9275,-1.828534 0.0883,-0.331364 0.11541,-0.68329 0.0413,-1.018107 -0.0741,-0.334818 -0.25471,-0.65134 -0.52889,-0.857301 -0.27349,-0.205444 -0.62848,-0.290977 -0.96902,-0.258872 -0.34055,0.03211 -0.66573,0.177051 -0.93494,0.388067 -0.53843,0.422032 -0.83961,1.080145 -1.01997,1.740057 -0.50134,1.83433 -0.2095,3.78949 -0.46837,5.6734 -0.11008,0.80109 -0.32467,1.59869 -0.737494,2.29399 -0.300293,0.50577 -0.702884,0.95051 -1.176352,1.29952"
       id="path860"
       inkscape:connector-curvature="0"
       inkscape:path-effect="#path-effect862;#path-effect864"
       inkscape:original-d="m 93.91851,115.61753 c 0.307043,-0.51629 0.809053,-0.90259 1.216078,-1.30962 0.240802,-0.2408 0.1979,-0.75916 0.374176,-0.93544 0.0441,-0.0441 0.142991,0.0441 0.187089,0 0.09786,-0.0979 0.207751,-0.4155 0.280633,-0.56127 0.03146,-0.0629 1.392166,-1.30412 1.403165,-1.30962 0.007,-0.004 0.138645,-0.43542 0.18709,-0.46772 0.08204,-0.0547 0.221469,-0.0147 0.280633,-0.0935 0.107606,-0.14348 0.10813,-0.57586 0.280633,-0.74836 0.09861,-0.0986 0.284903,-0.08 0.374176,-0.18709 0.0823,-0.0988 0.0429,-0.256 0.09354,-0.37417 0.287044,-0.66977 0.93449,-1.58911 1.403168,-2.15152 0.234999,-0.28201 0.603939,-0.52462 0.841899,-0.8419 0.14032,-0.18709 -0.28063,0 0,-0.28064 0.28439,-0.28439 0.51522,-0.8196 0.8419,-1.30962 0.12526,-0.18788 0.69638,-0.82108 0.74835,-1.02898 0.47467,-1.89865 0.91278,-2.19974 1.6838,-3.74178 0.20945,-0.4189 0.39269,-1.048476 0.18709,-1.870883 -0.0241,-0.09649 -0.82444,-0.944171 -1.40316,-0.654812 -0.37548,0.187741 -0.71502,0.808562 -1.02899,1.122532 -0.18485,0.184846 -0.46879,0.281702 -0.65481,0.467723 -1.02536,1.02536 -0.8419,3.8255 -0.8419,5.33203 0,0.47949 0.11457,1.13196 0,1.59025 -0.0962,0.38474 -0.16276,0.88678 -0.18709,0.93544 -0.0441,0.0882 -0.236537,0.005 -0.280635,0.0936 -0.03118,0.0624 0.09355,0.11736 0.09355,0.18709 0,0.0644 -0.636021,0.52369 -0.654812,0.56126 -0.136967,0.27393 0.213233,0.0674 0,0.28064 -0.09091,0.0909 -0.283268,0.003 -0.374177,0.0935 -0.31112,0.31112 -0.203943,0.52292 -0.467722,0.65481" />
    <path
       style="display:inline;fill:#000000;fill-opacity:1;stroke:none;stroke-width:2.46499991;stroke-miterlimit:4;stroke-dasharray:none;stroke-opacity:1"
       id="path1077"
       d="m 85.387361,81.968686 c 0.01233,-0.515245 0.135607,-1.019138 0.308351,-1.50222 0.110824,-0.319659 0.290748,-0.607944 0.465569,-0.89544 0.1143,-0.24258 0.256675,-0.471617 0.429075,-0.677275 0.146203,-0.16219 0.302686,-0.305149 0.421378,-0.488902 0.148606,-0.163428 0.25977,-0.350089 0.398229,-0.522666 0.169138,-0.23182 0.343895,-0.462434 0.547421,-0.665784 0.222173,-0.207548 0.372009,-0.47288 0.556717,-0.709465 0.185733,-0.26267 0.3961,-0.509513 0.593548,-0.764923 0.189392,-0.217274 0.359236,-0.454861 0.576408,-0.6461 0.645872,-0.91467 -0.161057,-0.02778 2.537,-1.57775 0.01762,-0.01013 0.07798,-0.01781 0.06052,-0.0074 -2.381416,1.420884 -2.729275,2.176875 -2.300084,1.289042 0.154192,-0.109231 0.247124,-0.281263 0.383144,-0.409628 0.847095,-0.576085 1.655646,-1.463559 2.705938,-1.624894 0.01167,-0.01669 0.05264,-0.06026 0.03497,-0.05012 -0.776626,0.445739 -1.540108,0.914125 -2.316795,1.359755 -0.01884,0.01082 0.01984,-0.04144 0.0385,-0.05256 0.809225,-0.482727 1.621666,-0.96022 2.440596,-1.426286 0.0011,-5.3e-4 0.123373,-0.0054 0.131331,-0.0057 0.06879,-2.65e-4 0.03234,-0.0024 0.109239,0.0081 0,0 -2.248998,1.65481 -2.248998,1.65481 v 0 c -0.05961,0.01857 -0.03202,0.0092 -0.08295,0.02774 -0.06032,0.02879 -0.03031,0.01111 -0.0891,0.05458 0.774234,-0.456419 1.548466,-0.912839 2.322697,-1.369255 0.01733,-0.01024 -0.03505,0.01979 -0.05225,0.03025 -2.445039,1.4874 -1.487284,1.329348 -2.49245,1.485431 -0.993968,0.619752 2.868195,-2.311569 2.092976,-1.105334 -0.178125,0.07645 -0.300439,0.198713 -0.393991,0.371412 -0.988009,0.199104 -0.06884,0.0062 -2.477055,1.490297 -0.749972,0.462167 1.527662,-0.877945 2.283764,-1.330015 0.02267,-0.01355 -0.05459,0.0058 -0.07649,0.02058 -0.02652,0.01786 -0.04154,0.04861 -0.06231,0.07292 -0.140893,0.257006 -0.447606,0.396814 -0.574558,0.670505 -0.233101,0.214153 -0.37755,0.511807 -0.610204,0.716909 -0.244176,0.488305 0.101066,-0.162263 -0.162721,0.224558 -0.03179,0.04662 -0.0397,0.106621 -0.0705,0.153902 -0.08737,0.134115 -0.213347,0.253847 -0.308697,0.383527 -0.410927,0.467686 0.162819,-0.169693 -0.23231,0.223301 -0.09432,0.09382 -0.150696,0.221929 -0.236228,0.321749 -0.02418,0.02821 -0.05562,0.04927 -0.08343,0.0739 -0.01815,0.03214 -0.173792,0.281747 -0.189891,0.300048 -0.02339,0.0266 -0.07072,0.02432 -0.09262,0.05217 -0.04758,0.06055 -0.0191,0.163827 -0.100256,0.208137 -0.173839,0.12563 -0.226145,0.377018 -0.426963,0.491567 -0.111843,0.111789 -0.246322,0.235963 -0.326742,0.373488 -0.02487,0.04251 -0.03244,0.09385 -0.05834,0.135734 -0.02096,0.03391 -0.05357,0.05907 -0.08036,0.0886 -0.108611,0.327768 -0.381537,0.570452 -0.49126,0.899364 -0.208931,0.42459 -0.338492,0.917556 -0.330446,1.391139 0,0 -2.469383,1.258216 -2.469383,1.258216 z"
       inkscape:connector-curvature="0" />
    <path
       style="display:inline;fill:#000000;fill-opacity:1;stroke:none;stroke-width:2.46499991;stroke-miterlimit:4;stroke-dasharray:none;stroke-opacity:1"
       id="path1079"
       d="m 82.186194,88.462288 c -0.668782,-0.01812 -1.338186,-0.02011 -2.007259,-0.02167 -0.909804,-0.05761 -1.809514,0.05363 -2.713995,0.118253 -1.013759,0.07131 -2.031817,0.123526 -3.042152,0.235783 -0.566013,0.06427 -1.14027,-0.0021 -1.705383,0.06912 -0.450958,0.08529 -0.22751,0.05244 -0.670107,0.100197 -0.252262,0.04503 -0.515292,0.01757 -0.767962,0.05321 -0.13976,0.01971 -0.275986,0.08522 -0.410416,0.126307 0.08278,-0.04553 -0.225168,0.08651 -0.172638,0.05641 1.559182,-0.893334 4.808927,-2.706352 -0.112696,0.06515 -0.737688,0.415412 2.914501,-1.71958 2.215377,-1.242113 -6.543125,3.745341 -0.384125,0.21961 -0.270571,0.155591 0.05494,-0.03097 -0.104272,0.07098 -0.156284,0.106646 -0.203044,0.139255 -0.402505,0.281442 -0.609978,0.414104 -1.215269,0.80522 -2.470698,1.541738 -3.770342,2.209911 -0.367252,0.115147 -0.719058,0.276826 -1.063953,0.447212 0.06922,-0.0451 -0.290338,0.157748 -0.218805,0.116417 0.776555,-0.448675 3.157987,-1.690103 2.330024,-1.345393 -4.835676,2.013265 -1.460934,1.141974 -2.53582,1.416839 -0.85359,0.735525 2.964241,-1.619129 2.206014,-1.246892 -0.860361,0.422376 -1.667256,0.945928 -2.498063,1.423818 -0.03932,0.02262 -0.151257,0.09993 -0.111872,0.07744 2.237804,-1.277604 2.921225,-1.861362 2.164784,-1.225161 -0.116718,0.125998 -0.260143,0.215678 -0.382328,0.334796 -0.0065,0.0365 -0.02665,0.05752 -0.02492,0.09382 0,0 -2.518174,1.234802 -2.518174,1.234802 v 0 c 0.01537,-0.04655 -0.0043,-0.09351 0.02117,-0.138416 0.01172,-0.211236 0.15162,-0.377161 0.343131,-0.459256 0.683315,-0.848466 0.07069,-0.112038 2.550123,-1.583108 0.04059,-0.02408 0.169007,-0.08376 0.128328,-0.05983 -5.12509,3.015308 -0.752637,0.329602 0.317706,-0.159998 0.801129,-0.338839 -2.958007,1.826027 -2.253366,1.316026 0.855329,-0.619066 1.718749,-1.105185 2.651889,-1.520753 0.341898,-0.147246 0.685615,-0.289243 1.028822,-0.433126 0.988124,-0.502891 0.121378,-0.06752 -1.859986,1.100617 -0.07673,0.04524 0.161697,-0.07598 0.236715,-0.124013 0.163388,-0.104619 0.309313,-0.234614 0.470177,-0.343075 0.07536,-0.0508 0.152676,-0.09864 0.229016,-0.14796 0.270134,-0.144947 0.49412,-0.34022 0.755726,-0.494456 1.902736,-1.121812 4.558959,-2.658451 0.253918,-0.161219 0.833359,-0.486957 2.215206,-1.294778 2.573063,-1.476838 0.801764,-0.407897 -3.150616,1.733312 -2.337139,1.349304 0.852075,-0.40223 1.632482,-0.941493 2.45332,-1.404149 0.0503,-0.02835 0.118599,-0.01275 0.167423,-0.04448 0.380206,-0.09546 0.775957,-0.05891 1.162555,-0.113351 0.780497,-0.09496 1.561505,-0.09852 2.34587,-0.142274 1.012449,-0.08911 2.027293,-0.154339 3.040925,-0.228608 0.914181,-0.08208 1.823876,-0.149273 2.743367,-0.112977 0.68897,-0.0016 1.37822,-0.004 2.06693,-0.02167 0,0 -2.242153,1.629021 -2.242153,1.629021 z"
       inkscape:connector-curvature="0" />
  </g>
  <g
     inkscape:groupmode="layer"
     id="layer3"
     inkscape:label="belts"
     style="display:inline"
     sodipodi:insensitive="true">
    <path
       style="fill:none;stroke:#000000;stroke-width:2.46499991;stroke-linecap:butt;stroke-linejoin:miter;stroke-miterlimit:4;stroke-dasharray:none;stroke-opacity:1"
       d="m 121.70833,115.76042 c -1.68691,11.76304 -7.26358,22.93512 -15.65058,31.35374 -5.21689,5.23656 -11.412882,9.37294 -17.553905,13.48699 -0.377849,0.25313 -0.755661,0.50632 -1.133437,0.75956"
       id="path868"
       inkscape:connector-curvature="0"
       inkscape:path-effect="#path-effect870;#path-effect872"
       inkscape:original-d="m 121.70833,115.76042 c -2.64583,18.52083 -22.48958,43.65625 -34.337922,45.03903 0,0.70574 -0.314634,-0.068 0,0.56126"
       sodipodi:nodetypes="ccc" />
    <path
       style="fill:none;stroke:#000000;stroke-width:2.46499991;stroke-linecap:butt;stroke-linejoin:miter;stroke-miterlimit:4;stroke-dasharray:none;stroke-opacity:1"
       d="m 78.390151,176.88907 c 14.014341,-5.28792 26.653699,-14.17482 36.371579,-25.57335 3.55491,-4.16971 6.72968,-8.67691 9.28811,-13.52235 2.01515,-3.81651 3.6442,-7.83675 4.85425,-11.9795"
       id="path874"
       inkscape:connector-curvature="0"
       inkscape:path-effect="#path-effect876;#path-effect878"
       inkscape:original-d="m 78.390151,176.88907 c 21.171238,-2.89202 36.272389,-24.54865 45.649639,-38.72735 0.13837,-0.20756 -0.11156,-0.52524 0,-0.74836 0.37764,-0.75528 0.86312,-1.65078 1.30962,-2.43215 0.45896,-0.80319 2.24506,-2.8622 2.24506,-3.55468 0,-1.66316 1.04335,-5.3464 1.30962,-5.61266"
       sodipodi:nodetypes="ccscsc" />
    <path
       style="fill:none;stroke:#000000;stroke-width:2.46499991;stroke-linecap:butt;stroke-linejoin:miter;stroke-miterlimit:4;stroke-dasharray:none;stroke-opacity:1"
       d="m 85.422617,123.13095 c 3.838355,7.62971 9.899912,14.12446 17.246953,18.47951 1.87337,1.11046 3.8275,2.08463 5.84186,2.91227"
       id="path880"
       inkscape:connector-curvature="0"
       inkscape:path-effect="#path-effect882;#path-effect884"
       inkscape:original-d="m 85.422617,123.13095 c 3.827908,10.55399 14.380297,17.33629 22.340453,21.20469 0.33102,0.16551 1.14092,-0.20547 0.74836,0.18709"
       sodipodi:nodetypes="ccc" />
    <path
       style="fill:none;stroke:#000000;stroke-width:2.46499991;stroke-linecap:butt;stroke-linejoin:miter;stroke-miterlimit:4;stroke-dasharray:none;stroke-opacity:1"
       d="m 90.363827,140.96805 c 2.797114,3.35637 6.21166,6.19653 10.021333,8.33556 0.64018,0.35944 1.29136,0.69928 1.95234,1.01887"
       id="path886"
       inkscape:connector-curvature="0"
       inkscape:path-effect="#path-effect888;#path-effect890"
       inkscape:original-d="m 90.363827,140.96805 c 2.618182,4.65972 7.345224,6.936 11.973673,9.35443"
       sodipodi:nodetypes="cc" />
    <path
       style="fill:none;stroke:#000000;stroke-width:2.46499991;stroke-linecap:butt;stroke-linejoin:miter;stroke-miterlimit:4;stroke-dasharray:none;stroke-opacity:1"
       d="m 117.73958,148.83333 c 3.14723,1.51726 6.5829,2.43354 10.06771,2.68502 1.4926,0.10771 2.99389,0.0946 4.48438,-0.0392"
       id="path892"
       inkscape:connector-curvature="0"
       inkscape:path-effect="#path-effect894;#path-effect896"
       inkscape:original-d="m 117.73958,148.83333 c 5.29167,2.64584 8.63043,2.87078 14.55209,2.64584"
       sodipodi:nodetypes="cc" />
    <path
       style="fill:none;stroke:#000000;stroke-width:2.46499991;stroke-linecap:butt;stroke-linejoin:miter;stroke-miterlimit:4;stroke-dasharray:none;stroke-opacity:1"
       d="m 111.125,155.44792 c 4.36339,2.0462 8.9926,3.52469 13.73426,4.3865 2.07967,0.37799 4.1808,0.63786 6.28989,0.77794"
       id="path898"
       inkscape:connector-curvature="0"
       inkscape:path-effect="#path-effect900;#path-effect902"
       inkscape:original-d="m 111.125,155.44792 c 9.45513,5.00483 13.22917,3.96875 20.02415,5.16444"
       sodipodi:nodetypes="cc" />
    <path
       style="fill:none;stroke:#000000;stroke-width:2.46499991;stroke-linecap:butt;stroke-linejoin:miter;stroke-miterlimit:4;stroke-dasharray:none;stroke-opacity:1"
       d="m 80.635215,171.08932 c 3.354357,1.20272 6.756755,2.27146 10.196356,3.2028 3.596742,0.97389 7.242585,1.79899 10.944669,2.22278 2.14459,0.2455 4.30232,0.3557 6.4593,0.43939 5.31841,0.20635 10.71454,0.24445 15.87581,-1.05531 1.89335,-0.4768 3.78007,-1.15211 5.30942,-2.36587 1.12976,-0.89663 2.03531,-2.07358 2.61243,-3.39541 L 132.29167,170"
       id="path916"
       inkscape:connector-curvature="0"
       inkscape:path-effect="#path-effect918;#path-effect920"
       inkscape:original-d="m 80.635215,171.08932 c 0.823857,-0.39804 1.542296,1.12253 2.993419,1.12253 0.110093,0 0.989502,0.74836 1.122532,0.74836 3.426428,0 7.245916,2.24506 11.038231,2.24506 0.858697,0 3.246342,1.12254 3.928861,1.12254 0.637342,0 1.441192,0.18709 2.057982,0.18709 0.0731,0 0.2107,-0.35057 0.37417,-0.18709 0.0986,0.0986 0.0476,0.37417 0.18709,0.37417 7.95418,0.33775 22.01667,1.23552 23.199,-2.05797 0.17639,0 0.20305,-0.3314 0.37417,-0.37418 0.0983,-0.0246 0.34924,0.61114 0.56127,0.18709 0.0624,-0.12473 -0.28569,-0.27557 -0.18709,-0.37418 1.17025,0.26604 1.90312,-0.0267 2.99342,-0.56126 0.17639,-0.0882 0.42182,0.32653 0.56127,0.18709 0.43963,-0.43964 1.33311,-0.66656 1.87088,-0.93545 1.58489,-0.0972 -0.45843,-2.69464 0.58125,-2.77312"
       sodipodi:nodetypes="cssssscccccccccc" />
    <path
       style="fill:none;stroke:#000000;stroke-width:2.46499991;stroke-linecap:butt;stroke-linejoin:miter;stroke-miterlimit:4;stroke-dasharray:none;stroke-opacity:1"
       d="m 77.828885,179.88249 c 13.362312,5.24277 27.986075,7.23701 42.264275,5.76356 3.54785,-0.36612 7.22304,-1.00198 10.10789,-3.09934 0.77528,-0.56365 1.47946,-1.22497 2.09062,-1.96338"
       id="path922"
       inkscape:connector-curvature="0"
       inkscape:path-effect="#path-effect924;#path-effect926"
       inkscape:original-d="m 77.828885,179.88249 v 0 c 0,0.12473 -0.111559,-0.0558 0,0 41.721235,11.05405 51.816945,3.34668 51.816945,3.34668 0.71256,-1.42512 -0.11392,0.48716 2.64584,-2.64584"
       sodipodi:nodetypes="ccccc" />
  </g>
  <g
     inkscape:groupmode="layer"
     id="layer4"
     inkscape:label="tss"
     sodipodi:insensitive="true">
    <rect
       style="fill:#000000;fill-opacity:1;stroke:none;stroke-width:4.46500015;stroke-miterlimit:4;stroke-dasharray:none;stroke-opacity:1"
       id="rect951"
       width="34.798492"
       height="25.069878"
       x="-35.71875"
       y="74.75"
       rx="9.1999998" />
    <rect
       style="fill:#000000;fill-opacity:1;stroke:none;stroke-width:4.46500015;stroke-miterlimit:4;stroke-dasharray:none;stroke-opacity:1"
       id="rect993"
       width="27.034313"
       height="6.1739259"
       x="-32.061398"
       y="98.5625"
       rx="9.2000122" />
    <g
       id="g998"
       transform="translate(10.161952,-9.3922151)">
      <rect
         rx="2"
         y="113.37247"
         x="-40.224064"
         height="1.726"
         width="22.918362"
         id="rect995"
         style="fill:#000000;fill-opacity:1;stroke:none;stroke-width:4.46500015;stroke-miterlimit:4;stroke-dasharray:none;stroke-opacity:1" />
    </g>
    <rect
       style="fill:#000000;fill-opacity:1;stroke:none;stroke-width:4.46500015;stroke-miterlimit:4;stroke-dasharray:none;stroke-opacity:1"
       id="rect1002"
       width="22.489584"
       height="5.2916665"
       x="-30.162502"
       y="105.97083"
       rx="9.2000122" />
    <rect
       style="fill:#000000;fill-opacity:1;stroke:none;stroke-width:4.46500015;stroke-miterlimit:4;stroke-dasharray:none;stroke-opacity:1"
       id="rect1004"
       width="11.90625"
       height="1.3229166"
       x="-25.135416"
       y="105.17709"
       rx="9.2000122" />
    <rect
       style="fill:#000000;fill-opacity:1;stroke:none;stroke-width:4.46500015;stroke-miterlimit:4;stroke-dasharray:none;stroke-opacity:1"
       id="rect1006"
       width="7.9375019"
       height="58.208344"
       x="-22.754168"
       y="100.94373"
       rx="16.582001" />
    <g
       id="g1055"
       transform="rotate(-161.37006,81.468324,101.83702)">
      <rect
         style="fill:#000000;fill-opacity:1;stroke:none;stroke-width:4.46500015;stroke-miterlimit:4;stroke-dasharray:none;stroke-opacity:1"
         id="rect1034"
         width="34.798492"
         height="25.069878"
         x="1.0583344"
         y="72.104164"
         rx="9.1999998" />
      <rect
         style="fill:#000000;fill-opacity:1;stroke:none;stroke-width:4.46500015;stroke-miterlimit:4;stroke-dasharray:none;stroke-opacity:1"
         id="rect1036"
         width="27.034313"
         height="6.1739259"
         x="4.7156868"
         y="95.916664"
         rx="9.2000122" />
      <g
         id="g1040"
         transform="translate(46.939036,-12.038048)">
        <rect
           rx="2"
           y="113.37247"
           x="-40.224064"
           height="1.726"
           width="22.918362"
           id="rect1038"
           style="fill:#000000;fill-opacity:1;stroke:none;stroke-width:4.46500015;stroke-miterlimit:4;stroke-dasharray:none;stroke-opacity:1" />
      </g>
      <rect
         style="fill:#000000;fill-opacity:1;stroke:none;stroke-width:4.46500015;stroke-miterlimit:4;stroke-dasharray:none;stroke-opacity:1"
         id="rect1042"
         width="22.489584"
         height="5.2916665"
         x="6.6145821"
         y="103.325"
         rx="9.2000122" />
      <rect
         style="fill:#000000;fill-opacity:1;stroke:none;stroke-width:4.46500015;stroke-miterlimit:4;stroke-dasharray:none;stroke-opacity:1"
         id="rect1044"
         width="11.90625"
         height="1.3229166"
         x="11.641668"
         y="102.53126"
         rx="9.2000122" />
      <rect
         style="fill:#000000;fill-opacity:1;stroke:none;stroke-width:4.46500015;stroke-miterlimit:4;stroke-dasharray:none;stroke-opacity:1"
         id="rect1046"
         width="7.9375019"
         height="58.208344"
         x="14.022917"
         y="98.297897"
         rx="16.582001" />
    </g>
    <rect
       style="fill:#000000;fill-opacity:1;stroke:none;stroke-width:2.46499991;stroke-miterlimit:4;stroke-dasharray:none;stroke-opacity:1"
       id="rect1083"
       width="5.2916665"
       height="21.166666"
       x="-42.333332"
       y="21.833332"
       rx="16.299999" />
    <rect
       y="19.716663"
       x="-42.333332"
       width="5.2916665"
       id="rect1085"
       style="fill:#000000;fill-opacity:1;stroke:none;stroke-width:2.46499991;stroke-miterlimit:4;stroke-dasharray:none;stroke-opacity:1"
       height="12.8"
       rx="0.69999999" />
    <g
       id="g1093"
       transform="matrix(0.50000006,0,0,0.60656753,-4.4979215,19.56343)">
      <rect
         style="fill:#000000;fill-opacity:1;stroke:none;stroke-width:2.46499991;stroke-miterlimit:4;stroke-dasharray:none;stroke-opacity:1"
         id="rect1087"
         width="5.2916665"
         height="21.166666"
         x="-28.04582"
         y="21.833332"
         rx="16.299999" />
      <rect
         y="19.716663"
         x="-28.04582"
         width="5.2916665"
         id="rect1089"
         style="fill:#000000;fill-opacity:1;stroke:none;stroke-width:2.46499991;stroke-miterlimit:4;stroke-dasharray:none;stroke-opacity:1"
         height="12.8"
         rx="0.69999999" />
    </g>
    <g
       transform="translate(21.695828,11.806254)"
       id="g1143">
      <rect
         rx="16.299999"
         y="21.833332"
         x="-28.04582"
         height="21.166666"
         width="5.2916665"
         id="rect1139"
         style="fill:#000000;fill-opacity:1;stroke:none;stroke-width:2.46499991;stroke-miterlimit:4;stroke-dasharray:none;stroke-opacity:1" />
      <rect
         rx="0.69999999"
         height="12.8"
         style="fill:#000000;fill-opacity:1;stroke:none;stroke-width:2.46499991;stroke-miterlimit:4;stroke-dasharray:none;stroke-opacity:1"
         id="rect1141"
         width="5.2916665"
         x="-28.04582"
         y="19.716663" />
    </g>
    <g
       transform="matrix(0.46079578,-0.19408068,0.23544605,0.55900745,96.925177,142.07571)"
       id="g1149">
      <rect
         rx="16.299999"
         y="21.833332"
         x="-28.04582"
         height="21.166666"
         width="5.2916665"
         id="rect1145"
         style="fill:#000000;fill-opacity:1;stroke:none;stroke-width:2.46499991;stroke-miterlimit:4;stroke-dasharray:none;stroke-opacity:1" />
      <rect
         rx="0.69999999"
         height="12.8"
         style="fill:#000000;fill-opacity:1;stroke:none;stroke-width:2.46499991;stroke-miterlimit:4;stroke-dasharray:none;stroke-opacity:1"
         id="rect1147"
         width="5.2916665"
         x="-28.04582"
         y="19.716663" />
    </g>
    <g
       id="g1155"
       transform="matrix(0.46079578,-0.19408068,0.23544605,0.55900745,101.68769,139.42986)">
      <rect
         style="fill:#000000;fill-opacity:1;stroke:none;stroke-width:2.46499991;stroke-miterlimit:4;stroke-dasharray:none;stroke-opacity:1"
         id="rect1151"
         width="5.2916665"
         height="21.166666"
         x="-28.04582"
         y="21.833332"
         rx="16.299999" />
      <rect
         y="19.716663"
         x="-28.04582"
         width="5.2916665"
         id="rect1153"
         style="fill:#000000;fill-opacity:1;stroke:none;stroke-width:2.46499991;stroke-miterlimit:4;stroke-dasharray:none;stroke-opacity:1"
         height="12.8"
         rx="0.69999999" />
    </g>
    <g
       transform="matrix(0.46079578,-0.19408068,0.23544605,0.55900745,106.45022,137.31318)"
       id="g1161">
      <rect
         rx="16.299999"
         y="21.833332"
         x="-28.04582"
         height="21.166666"
         width="5.2916665"
         id="rect1157"
         style="fill:#000000;fill-opacity:1;stroke:none;stroke-width:2.46499991;stroke-miterlimit:4;stroke-dasharray:none;stroke-opacity:1" />
      <rect
         rx="0.69999999"
         height="12.8"
         style="fill:#000000;fill-opacity:1;stroke:none;stroke-width:2.46499991;stroke-miterlimit:4;stroke-dasharray:none;stroke-opacity:1"
         id="rect1159"
         width="5.2916665"
         x="-28.04582"
         y="19.716663" />
    </g>
    <g
       id="g1167"
       transform="matrix(0.46079578,-0.19408068,0.23544605,0.55900745,111.21275,134.13816)">
      <rect
         style="fill:#000000;fill-opacity:1;stroke:none;stroke-width:2.46499991;stroke-miterlimit:4;stroke-dasharray:none;stroke-opacity:1"
         id="rect1163"
         width="5.2916665"
         height="21.166666"
         x="-28.04582"
         y="21.833332"
         rx="16.299999" />
      <rect
         y="19.716663"
         x="-28.04582"
         width="5.2916665"
         id="rect1165"
         style="fill:#000000;fill-opacity:1;stroke:none;stroke-width:2.46499991;stroke-miterlimit:4;stroke-dasharray:none;stroke-opacity:1"
         height="12.8"
         rx="0.69999999" />
    </g>
    <g
       transform="matrix(0.44871948,-0.22056946,0.26758051,0.54435727,113.08366,129.66752)"
       id="g1173">
      <rect
         rx="16.299999"
         y="21.833332"
         x="-28.04582"
         height="21.166666"
         width="5.2916665"
         id="rect1169"
         style="fill:#000000;fill-opacity:1;stroke:none;stroke-width:2.46499991;stroke-miterlimit:4;stroke-dasharray:none;stroke-opacity:1" />
      <rect
         rx="0.69999999"
         height="12.8"
         style="fill:#000000;fill-opacity:1;stroke:none;stroke-width:2.46499991;stroke-miterlimit:4;stroke-dasharray:none;stroke-opacity:1"
         id="rect1171"
         width="5.2916665"
         x="-28.04582"
         y="19.716663" />
    </g>
    <g
       id="g1179"
       transform="matrix(0.40952499,-0.28686118,0.34800132,0.49680907,114.35695,125.17659)">
      <rect
         style="fill:#000000;fill-opacity:1;stroke:none;stroke-width:2.46499991;stroke-miterlimit:4;stroke-dasharray:none;stroke-opacity:1"
         id="rect1175"
         width="5.2916665"
         height="21.166666"
         x="-28.04582"
         y="21.833332"
         rx="16.299999" />
      <rect
         y="19.716663"
         x="-28.04582"
         width="5.2916665"
         id="rect1177"
         style="fill:#000000;fill-opacity:1;stroke:none;stroke-width:2.46499991;stroke-miterlimit:4;stroke-dasharray:none;stroke-opacity:1"
         height="12.8"
         rx="0.69999999" />
    </g>
    <g
       transform="matrix(0.40952499,-0.28686118,0.34800132,0.49680907,118.59028,119.35574)"
       id="g1185">
      <rect
         rx="16.299999"
         y="21.833332"
         x="-28.04582"
         height="21.166666"
         width="5.2916665"
         id="rect1181"
         style="fill:#000000;fill-opacity:1;stroke:none;stroke-width:2.46499991;stroke-miterlimit:4;stroke-dasharray:none;stroke-opacity:1" />
      <rect
         rx="0.69999999"
         height="12.8"
         style="fill:#000000;fill-opacity:1;stroke:none;stroke-width:2.46499991;stroke-miterlimit:4;stroke-dasharray:none;stroke-opacity:1"
         id="rect1183"
         width="5.2916665"
         x="-28.04582"
         y="19.716663" />
    </g>
    <g
       id="g1191"
       transform="matrix(0.40952499,-0.28686118,0.34800132,0.49680907,121.7653,112.47653)">
      <rect
         style="fill:#000000;fill-opacity:1;stroke:none;stroke-width:2.46499991;stroke-miterlimit:4;stroke-dasharray:none;stroke-opacity:1"
         id="rect1187"
         width="5.2916665"
         height="21.166666"
         x="-28.04582"
         y="21.833332"
         rx="16.299999" />
      <rect
         y="19.716663"
         x="-28.04582"
         width="5.2916665"
         id="rect1189"
         style="fill:#000000;fill-opacity:1;stroke:none;stroke-width:2.46499991;stroke-miterlimit:4;stroke-dasharray:none;stroke-opacity:1"
         height="12.8"
         rx="0.69999999" />
    </g>
    <g
       transform="matrix(0.48814084,0.10825237,-0.13132473,0.5921807,141.10837,140.88259)"
       id="g1197">
      <rect
         rx="16.299999"
         y="21.833332"
         x="-28.04582"
         height="21.166666"
         width="5.2916665"
         id="rect1193"
         style="fill:#000000;fill-opacity:1;stroke:none;stroke-width:2.46499991;stroke-miterlimit:4;stroke-dasharray:none;stroke-opacity:1" />
      <rect
         rx="0.69999999"
         height="12.8"
         style="fill:#000000;fill-opacity:1;stroke:none;stroke-width:2.46499991;stroke-miterlimit:4;stroke-dasharray:none;stroke-opacity:1"
         id="rect1195"
         width="5.2916665"
         x="-28.04582"
         y="19.716663" />
    </g>
    <g
       id="g1203"
       transform="matrix(0.48814084,0.10825237,-0.13132473,0.5921807,135.81667,139.82425)">
      <rect
         style="fill:#000000;fill-opacity:1;stroke:none;stroke-width:2.46499991;stroke-miterlimit:4;stroke-dasharray:none;stroke-opacity:1"
         id="rect1199"
         width="5.2916665"
         height="21.166666"
         x="-28.04582"
         y="21.833332"
         rx="16.299999" />
      <rect
         y="19.716663"
         x="-28.04582"
         width="5.2916665"
         id="rect1201"
         style="fill:#000000;fill-opacity:1;stroke:none;stroke-width:2.46499991;stroke-miterlimit:4;stroke-dasharray:none;stroke-opacity:1"
         height="12.8"
         rx="0.69999999" />
    </g>
    <g
       transform="matrix(0.45896663,0.19836755,-0.2406466,0.55678845,118.91098,135.21731)"
       id="g1209">
      <rect
         rx="16.299999"
         y="21.833332"
         x="-28.04582"
         height="21.166666"
         width="5.2916665"
         id="rect1205"
         style="fill:#000000;fill-opacity:1;stroke:none;stroke-width:2.46499991;stroke-miterlimit:4;stroke-dasharray:none;stroke-opacity:1" />
      <rect
         rx="0.69999999"
         height="12.8"
         style="fill:#000000;fill-opacity:1;stroke:none;stroke-width:2.46499991;stroke-miterlimit:4;stroke-dasharray:none;stroke-opacity:1"
         id="rect1207"
         width="5.2916665"
         x="-28.04582"
         y="19.716663" />
    </g>
    <g
       id="g1215"
       transform="matrix(0.47640385,0.15178745,-0.18413865,0.57794214,113.3541,131.29022)">
      <rect
         style="fill:#000000;fill-opacity:1;stroke:none;stroke-width:2.46499991;stroke-miterlimit:4;stroke-dasharray:none;stroke-opacity:1"
         id="rect1211"
         width="5.2916665"
         height="21.166666"
         x="-28.04582"
         y="21.833332"
         rx="16.299999" />
      <rect
         y="19.716663"
         x="-28.04582"
         width="5.2916665"
         id="rect1213"
         style="fill:#000000;fill-opacity:1;stroke:none;stroke-width:2.46499991;stroke-miterlimit:4;stroke-dasharray:none;stroke-opacity:1"
         height="12.8"
         rx="0.69999999" />
    </g>
  </g>
  <g
     inkscape:groupmode="layer"
     id="layer5"
     inkscape:label="ori">
    <path
       style="fill:none;stroke:#000000;stroke-width:1.66499996;stroke-linecap:butt;stroke-linejoin:miter;stroke-miterlimit:4;stroke-dasharray:none;stroke-opacity:1"
       d="m 66.675,75.808333 -7.672917,-11.1125"
       id="path1230"
       inkscape:connector-curvature="0"
       inkscape:path-effect="#path-effect1232;#path-effect1234"
       inkscape:original-d="m 66.675,75.808333 -7.672917,-11.1125"
       sodipodi:nodetypes="cc" />
    <path
       style="fill:none;stroke:#000000;stroke-width:1.66499996;stroke-linecap:butt;stroke-linejoin:miter;stroke-miterlimit:4;stroke-dasharray:none;stroke-opacity:1"
       d="m 68.313671,58.875 -9.627343,6.879168"
       id="path1236"
       inkscape:connector-curvature="0"
       inkscape:path-effect="#path-effect1238;#path-effect1240"
       inkscape:original-d="m 68.313671,58.875 -9.627343,6.879168" />
    <path
       sodipodi:type="star"
       style="fill:#000000;fill-opacity:1;stroke:none;stroke-width:2.46499991;stroke-miterlimit:4;stroke-dasharray:none;stroke-opacity:1"
       id="path1278"
       sodipodi:sides="3"
       sodipodi:cx="68.791664"
       sodipodi:cy="58.345833"
       sodipodi:r1="4.2188858"
       sodipodi:r2="0.77138633"
       sodipodi:arg1="0.57028566"
       sodipodi:arg2="1.6174833"
       inkscape:flatsided="true"
       inkscape:rounded="0"
       inkscape:randomized="0"
       d="m 72.342898,60.623493 -7.299363,-0.341032 3.945024,-6.150917 z"
       inkscape:transform-center-x="0.42284695"
       inkscape:transform-center-y="0.51176972"
       transform="rotate(57.4443,68.541451,58.493368)" />
  </g>
</svg>
